<?xml version="1.0" standalone="no"?>
<!DOCTYPE svg PUBLIC "-//W3C//DTD SVG 1.1//EN"
"http://www.w3.org/Graphics/SVG/1.1/DTD/svg11.dtd">
<!-- Created with dep2pict -->
<svg xmlns:svg="http://www.w3.org/2000/svg" xmlns="http://www.w3.org/2000/svg" xmlns:xlink="http://www.w3.org/1999/xlink" width="820.98730" height="481.81055">
<rect x="0" y="0" width="820.98730" height="481.81055" style="fill:white;fill-opacity:0;" />
<g  transform="translate(0,119.36719) scale(2,2)">
<text id="word__N_0" x="26.8428" y="-14.4062" font-style="normal" font-weight="normal" fill="black" font-size="12" font-family="Arial" text-anchor="middle" text-align="center">
<tspan   x="26.8428" dy="12.8633">__0__</tspan>
</text>
<text id="word__N_1" x="93.9807" y="-14.4062" font-style="normal" font-weight="normal" fill="black" font-size="12" font-family="Arial" text-anchor="middle" text-align="center">
<tspan   x="93.9807" dy="12.8633">#</tspan>
</text>
<text id="subword__N_1" x="93.9807" y="-1.54297" fill="black" font-size="7" font-family="Arial" text-anchor="middle" text-align="center">
<tspan   x="93.9807" dy="8.33691">upos=PUNCT</tspan>
<tspan   x="93.9807" dy="8.33691">lemma=#</tspan>
<tspan   x="93.9807" dy="8.33691">AlignBegin=200000</tspan>
<tspan   x="93.9807" dy="8.33691">AlignEnd=200330</tspan>
<tspan   x="93.9807" dy="8.33691">Gloss=PUNCT</tspan>
</text>
<text id="word__N_2" x="181.217" y="-14.4062" font-style="normal" font-weight="normal" fill="black" font-size="12" font-family="Arial" text-anchor="middle" text-align="center">
<tspan   x="181.217" dy="12.8633">you</tspan>
</text>
<text id="subword__N_2" x="181.217" y="-1.54297" fill="black" font-size="7" font-family="Arial" text-anchor="middle" text-align="center">
<tspan   x="181.217" dy="8.33691">upos=PRON</tspan>
<tspan   x="181.217" dy="8.33691">lemma=you</tspan>
<tspan   x="181.217" dy="8.33691">AlignBegin=200330</tspan>
<tspan   x="181.217" dy="8.33691">AlignEnd=200400</tspan>
<tspan   x="181.217" dy="8.33691">Case=Nom</tspan>
<tspan   x="181.217" dy="8.33691">Gloss=NOM.2</tspan>
<tspan   x="181.217" dy="8.33691">Person=2</tspan>
<tspan   x="181.217" dy="8.33691">PronType=Prs</tspan>
<tspan   x="181.217" dy="8.33691">Syl1=jO</tspan>
<tspan   x="181.217" dy="8.33691">Syl1AlignBegin=200330</tspan>
<tspan   x="181.217" dy="8.33691">Syl1AlignEnd=200467</tspan>
<tspan   x="181.217" dy="8.33691">Syl1AvgHeightGlo=M</tspan>
<tspan   x="181.217" dy="8.33691">Syl1AvgHeightLoc=M</tspan>
<tspan   x="181.217" dy="8.33691">Syl1Glo=mm</tspan>
<tspan   x="181.217" dy="8.33691">Syl1Loc=mm</tspan>
<tspan   x="181.217" dy="8.33691">Syl1PitchRangeGlo=L</tspan>
<tspan   x="181.217" dy="8.33691">Syl1PitchRangeLoc=L</tspan>
<tspan   x="181.217" dy="8.33691">Syl1SlopeGlo=Flat</tspan>
<tspan   x="181.217" dy="8.33691">Syl1SlopeLoc=Flat</tspan>
<tspan   x="181.217" dy="8.33691">SyllableCount=1</tspan>
</text>
<text id="word__N_3" x="278.506" y="-14.4062" font-style="normal" font-weight="normal" fill="black" font-size="12" font-family="Arial" text-anchor="middle" text-align="center">
<tspan   x="278.506" dy="12.8633">understand</tspan>
</text>
<text id="subword__N_3" x="278.506" y="-1.54297" fill="black" font-size="7" font-family="Arial" text-anchor="middle" text-align="center">
<tspan   x="278.506" dy="8.33691">upos=VERB</tspan>
<tspan   x="278.506" dy="8.33691">lemma=understand</tspan>
<tspan   x="278.506" dy="8.33691">AlignBegin=200400</tspan>
<tspan   x="278.506" dy="8.33691">AlignEnd=200841</tspan>
<tspan   x="278.506" dy="8.33691">Gloss=understand</tspan>
<tspan   x="278.506" dy="8.33691">Syl1=FUSED</tspan>
<tspan   x="278.506" dy="8.33691">Syl2=sta~</tspan>
<tspan   x="278.506" dy="8.33691">Syl2AlignBegin=200467</tspan>
<tspan   x="278.506" dy="8.33691">Syl2AlignEnd=200841</tspan>
<tspan   x="278.506" dy="8.33691">Syl2AvgHeightGlo=H</tspan>
<tspan   x="278.506" dy="8.33691">Syl2AvgHeightLoc=H</tspan>
<tspan   x="278.506" dy="8.33691">Syl2Glo=hh</tspan>
<tspan   x="278.506" dy="8.33691">Syl2Loc=hh</tspan>
<tspan   x="278.506" dy="8.33691">Syl2PitchRangeGlo=L</tspan>
<tspan   x="278.506" dy="8.33691">Syl2PitchRangeLoc=L</tspan>
<tspan   x="278.506" dy="8.33691">Syl2SlopeGlo=Flat</tspan>
<tspan   x="278.506" dy="8.33691">Syl2SlopeLoc=Flat</tspan>
<tspan   x="278.506" dy="8.33691">SyllableCount=2</tspan>
<tspan   x="278.506" dy="8.33691">UtteranceMeanF0=96.185</tspan>
</text>
<text id="word__N_4" x="368.674" y="-14.4062" font-style="normal" font-weight="normal" fill="black" font-size="12" font-family="Arial" text-anchor="middle" text-align="center">
<tspan   x="368.674" dy="12.8633">?//</tspan>
</text>
<text id="subword__N_4" x="368.674" y="-1.54297" fill="black" font-size="7" font-family="Arial" text-anchor="middle" text-align="center">
<tspan   x="368.674" dy="8.33691">upos=PUNCT</tspan>
<tspan   x="368.674" dy="8.33691">lemma=?//</tspan>
<tspan   x="368.674" dy="8.33691">AlignBegin=200841</tspan>
<tspan   x="368.674" dy="8.33691">AlignEnd=200841</tspan>
<tspan   x="368.674" dy="8.33691">Gloss=PUNCT</tspan>
</text>

<marker id="markerendword_2" markerWidth="5" markerHeight="5" markerUnits="userSpaceOnUse" orient="auto" refX="2" refY="2">
<path d="M0,0 l4,2 l-4,2 z" style="fill:black;"/>
</marker>
<text id="label__N_3__N_2__subj" x="225.71729" y="-24.40625" style="fill:black;font-size:7px;font-family:Arial;text-anchor:middle;text-align:center" >subj</text>
<path style="marker-end:url(#markerendword_2);" stroke="black" fill="none" d="M 271.00610,-13.40625 271.00610,-18.40625 A 3 3 0 0 0 268.00610,-21.40625 L 184.21729,-21.40625 A 3 3 0 0 0 181.21729,-18.40625 L 181.21729,-13.40625" ></path>
<marker id="markerendword_3" markerWidth="5" markerHeight="5" markerUnits="userSpaceOnUse" orient="auto" refX="2" refY="2">
<path d="M0,0 l4,2 l-4,2 z" style="fill:black;"/>
</marker>
<text id="label__N_3__N_4__punct" x="327.00610" y="-24.40625" style="fill:black;font-size:7px;font-family:Arial;text-anchor:middle;text-align:center" >punct</text>
<path style="marker-end:url(#markerendword_3);" stroke="black" fill="none" d="M 286.00610,-13.40625 286.00610,-18.40625 A 3 3 0 0 1 289.00610,-21.40625 L 365.67358,-21.40625 A 3 3 0 0 1 368.67358,-18.40625 L 368.67358,-13.40625" ></path>
<marker id="markerendword_1" markerWidth="5" markerHeight="5" markerUnits="userSpaceOnUse" orient="auto" refX="2" refY="2">
<path d="M0,0 l4,2 l-4,2 z" style="fill:black;"/>
</marker>
<text id="label__N_3__N_1__punct" x="184.98071" y="-34.40625" style="fill:black;font-size:7px;font-family:Arial;text-anchor:middle;text-align:center" >punct</text>
<path style="marker-end:url(#markerendword_1);" stroke="black" fill="none" d="M 276.00610,-13.40625 276.00610,-28.40625 A 3 3 0 0 0 273.00610,-31.40625 L 96.98071,-31.40625 A 3 3 0 0 0 93.98071,-28.40625 L 93.98071,-13.40625" ></path>
<marker id="markerendword_0" markerWidth="5" markerHeight="5" markerUnits="userSpaceOnUse" orient="auto" refX="2" refY="2">
<path d="M0,0 l4,2 l-4,2 z" style="fill:black;"/>
</marker>
<text id="label__N_0__N_3__root" x="153.84277" y="-44.40625" style="fill:black;font-size:7px;font-family:Arial;text-anchor:middle;text-align:center" >root</text>
<path style="marker-end:url(#markerendword_0);" stroke="black" fill="none" d="M 26.84277,-13.40625 26.84277,-38.40625 A 3 3 0 0 1 29.84277,-41.40625 L 278.00610,-41.40625 A 3 3 0 0 1 281.00610,-38.40625 L 281.00610,-13.40625" ></path>


</g>
</svg>
