<?xml version="1.0" standalone="no"?>
<!DOCTYPE svg PUBLIC "-//W3C//DTD SVG 1.1//EN"
"http://www.w3.org/Graphics/SVG/1.1/DTD/svg11.dtd">
<!-- Created with dep2pict -->
<svg xmlns:svg="http://www.w3.org/2000/svg" xmlns="http://www.w3.org/2000/svg" xmlns:xlink="http://www.w3.org/1999/xlink" width="1579.59375" height="537.39844">
<rect x="0" y="0" width="1579.59375" height="537.39844" style="fill:white;fill-opacity:0;" />
<g  transform="translate(0,119.36719) scale(2,2)">
<text id="word__N_0" x="26.8428" y="-14.4062" font-style="normal" font-weight="normal" fill="black" font-size="12" font-family="Arial" text-anchor="middle" text-align="center">
<tspan   x="26.8428" dy="12.8633">__0__</tspan>
</text>
<text id="word__N_1" x="93.9807" y="-14.4062" font-style="normal" font-weight="normal" fill="black" font-size="12" font-family="Arial" text-anchor="middle" text-align="center">
<tspan   x="93.9807" dy="12.8633">#</tspan>
</text>
<text id="subword__N_1" x="93.9807" y="-1.54297" fill="black" font-size="7" font-family="Arial" text-anchor="middle" text-align="center">
<tspan   x="93.9807" dy="8.33691">upos=PUNCT</tspan>
<tspan   x="93.9807" dy="8.33691">lemma=#</tspan>
<tspan   x="93.9807" dy="8.33691">AlignBegin=142640</tspan>
<tspan   x="93.9807" dy="8.33691">AlignEnd=143580</tspan>
<tspan   x="93.9807" dy="8.33691">Gloss=PUNCT</tspan>
</text>
<text id="word__N_2" x="174.571" y="-14.4062" font-style="normal" font-weight="normal" fill="black" font-size="12" font-family="Arial" text-anchor="middle" text-align="center">
<tspan   x="174.571" dy="12.8633">you</tspan>
</text>
<text id="subword__N_2" x="174.571" y="-1.54297" fill="black" font-size="7" font-family="Arial" text-anchor="middle" text-align="center">
<tspan   x="174.571" dy="8.33691">upos=PRON</tspan>
<tspan   x="174.571" dy="8.33691">lemma=you</tspan>
<tspan   x="174.571" dy="8.33691">AlignBegin=143580</tspan>
<tspan   x="174.571" dy="8.33691">AlignEnd=143650</tspan>
<tspan   x="174.571" dy="8.33691">Case=Nom</tspan>
<tspan   x="174.571" dy="8.33691">Gloss=NOM.2</tspan>
<tspan   x="174.571" dy="8.33691">Person=2</tspan>
<tspan   x="174.571" dy="8.33691">PronType=Prs</tspan>
</text>
<text id="word__N_3" x="283.989" y="-14.4062" font-style="normal" font-weight="normal" fill="#cc00cb" font-size="12" font-family="Arial" text-anchor="middle" text-align="center">
<tspan   x="283.989" dy="12.8633">jO</tspan>
</text>
<text id="subword__N_3" x="283.989" y="-1.54297" fill="#cc00cb" font-size="7" font-family="Arial" text-anchor="middle" text-align="center">
<tspan   x="283.989" dy="8.33691">AlignBegin=143580</tspan>
<tspan   x="283.989" dy="8.33691">AlignEnd=143687</tspan>
<tspan   x="283.989" dy="8.33691">AvgAmplitude=68.992</tspan>
<tspan   x="283.989" dy="8.33691">AvgAmplitudeNormalized=1.0</tspan>
<tspan   x="283.989" dy="8.33691">AvgHeightGlo=M</tspan>
<tspan   x="283.989" dy="8.33691">AvgHeightLoc=M</tspan>
<tspan   x="283.989" dy="8.33691">Duration=106</tspan>
<tspan   x="283.989" dy="8.33691">DurationNormalized=0.098</tspan>
<tspan   x="283.989" dy="8.33691">Glo=mm</tspan>
<tspan   x="283.989" dy="8.33691">Loc=mm</tspan>
<tspan   x="283.989" dy="8.33691">MaxAmplitude=69.66</tspan>
<tspan   x="283.989" dy="8.33691">MaxAmplitudeNormalized=0.371</tspan>
<tspan   x="283.989" dy="8.33691">MeanF0=97.371</tspan>
<tspan   x="283.989" dy="8.33691">MeanF0Normalized=1.0</tspan>
<tspan   x="283.989" dy="8.33691">PitchRangeGlo=L</tspan>
<tspan   x="283.989" dy="8.33691">PitchRangeLoc=L</tspan>
<tspan   x="283.989" dy="8.33691">SemitonesFromUtteranceMean=0.369</tspan>
<tspan   x="283.989" dy="8.33691">Slope=Flat</tspan>
<tspan   x="283.989" dy="8.33691">SlopeGlo=Flat</tspan>
<tspan   x="283.989" dy="8.33691">SlopeLoc=Flat</tspan>
</text>
<text id="word__N_4" x="397.591" y="-14.4062" font-style="normal" font-weight="normal" fill="black" font-size="12" font-family="Arial" text-anchor="middle" text-align="center">
<tspan   x="397.591" dy="12.8633">understand</tspan>
</text>
<text id="subword__N_4" x="397.591" y="-1.54297" fill="black" font-size="7" font-family="Arial" text-anchor="middle" text-align="center">
<tspan   x="397.591" dy="8.33691">upos=VERB</tspan>
<tspan   x="397.591" dy="8.33691">lemma=understand</tspan>
<tspan   x="397.591" dy="8.33691">AlignBegin=143650</tspan>
<tspan   x="397.591" dy="8.33691">AlignEnd=144098</tspan>
<tspan   x="397.591" dy="8.33691">Gloss=understand</tspan>
<tspan   x="397.591" dy="8.33691">UtteranceMeanF0=0.0</tspan>
</text>
<text id="word__N_5" x="512.329" y="-14.4062" font-style="normal" font-weight="normal" fill="#cc00cb" font-size="12" font-family="Arial" text-anchor="middle" text-align="center">
<tspan   x="512.329" dy="12.8633">da</tspan>
</text>
<text id="subword__N_5" x="512.329" y="-1.54297" fill="#cc00cb" font-size="7" font-family="Arial" text-anchor="middle" text-align="center">
<tspan   x="512.329" dy="8.33691">AlignBegin=143687</tspan>
<tspan   x="512.329" dy="8.33691">AlignEnd=143770</tspan>
<tspan   x="512.329" dy="8.33691">AvgAmplitude=67.836</tspan>
<tspan   x="512.329" dy="8.33691">AvgAmplitudeNormalized=0.0</tspan>
<tspan   x="512.329" dy="8.33691">AvgHeightGlo=M</tspan>
<tspan   x="512.329" dy="8.33691">AvgHeightLoc=M</tspan>
<tspan   x="512.329" dy="8.33691">Duration=82</tspan>
<tspan   x="512.329" dy="8.33691">DurationNormalized=0.0</tspan>
<tspan   x="512.329" dy="8.33691">Glo=mm</tspan>
<tspan   x="512.329" dy="8.33691">Loc=mm</tspan>
<tspan   x="512.329" dy="8.33691">MaxAmplitude=68.936</tspan>
<tspan   x="512.329" dy="8.33691">MaxAmplitudeNormalized=0.0</tspan>
<tspan   x="512.329" dy="8.33691">MeanF0=95.089</tspan>
<tspan   x="512.329" dy="8.33691">MeanF0Normalized=0.977</tspan>
<tspan   x="512.329" dy="8.33691">PitchRangeGlo=L</tspan>
<tspan   x="512.329" dy="8.33691">PitchRangeLoc=L</tspan>
<tspan   x="512.329" dy="8.33691">SemitonesFromUtteranceMean=-0.042</tspan>
<tspan   x="512.329" dy="8.33691">Slope=Fall</tspan>
<tspan   x="512.329" dy="8.33691">SlopeGlo=Flat</tspan>
<tspan   x="512.329" dy="8.33691">SlopeLoc=Flat</tspan>
</text>
<text id="word__N_6" x="644.883" y="-14.4062" font-style="normal" font-weight="normal" fill="#cc00cb" font-size="12" font-family="Arial" text-anchor="middle" text-align="center">
<tspan   x="644.883" dy="12.8633">sta~</tspan>
</text>
<text id="subword__N_6" x="644.883" y="-1.54297" fill="#cc00cb" font-size="7" font-family="Arial" text-anchor="middle" text-align="center">
<tspan   x="644.883" dy="8.33691">AlignBegin=143770</tspan>
<tspan   x="644.883" dy="8.33691">AlignEnd=144098</tspan>
<tspan   x="644.883" dy="8.33691">AvgAmplitude=68.374</tspan>
<tspan   x="644.883" dy="8.33691">AvgAmplitudeNormalized=0.465</tspan>
<tspan   x="644.883" dy="8.33691">AvgHeightGlo=M</tspan>
<tspan   x="644.883" dy="8.33691">AvgHeightLoc=M</tspan>
<tspan   x="644.883" dy="8.33691">Duration=328</tspan>
<tspan   x="644.883" dy="8.33691">DurationNormalized=1.0</tspan>
<tspan   x="644.883" dy="8.33691">Glo=mm</tspan>
<tspan   x="644.883" dy="8.33691">Loc=mm</tspan>
<tspan   x="644.883" dy="8.33691">MaxAmplitude=70.885</tspan>
<tspan   x="644.883" dy="8.33691">MaxAmplitudeNormalized=1.0</tspan>
<tspan   x="644.883" dy="8.33691">MeanF0=0</tspan>
<tspan   x="644.883" dy="8.33691">MeanF0Normalized=0.0</tspan>
<tspan   x="644.883" dy="8.33691">PitchRangeGlo=L</tspan>
<tspan   x="644.883" dy="8.33691">PitchRangeLoc=L</tspan>
<tspan   x="644.883" dy="8.33691">SemitonesFromUtteranceMean=0</tspan>
<tspan   x="644.883" dy="8.33691">Slope=X</tspan>
<tspan   x="644.883" dy="8.33691">SlopeGlo=Flat</tspan>
<tspan   x="644.883" dy="8.33691">SlopeLoc=Flat</tspan>
</text>
<text id="word__N_7" x="747.488" y="-14.4062" font-style="normal" font-weight="normal" fill="black" font-size="12" font-family="Arial" text-anchor="middle" text-align="center">
<tspan   x="747.488" dy="12.8633">?//</tspan>
</text>
<text id="subword__N_7" x="747.488" y="-1.54297" fill="black" font-size="7" font-family="Arial" text-anchor="middle" text-align="center">
<tspan   x="747.488" dy="8.33691">upos=PUNCT</tspan>
<tspan   x="747.488" dy="8.33691">lemma=?//</tspan>
<tspan   x="747.488" dy="8.33691">AlignBegin=144098</tspan>
<tspan   x="747.488" dy="8.33691">AlignEnd=144098</tspan>
<tspan   x="747.488" dy="8.33691">Gloss=PUNCT</tspan>
</text>

<marker id="markerendword_3" markerWidth="5" markerHeight="5" markerUnits="userSpaceOnUse" orient="auto" refX="2" refY="2">
<path d="M0,0 l4,2 l-4,2 z" style="fill:black;"/>
</marker>
<text id="label__N_4__N_2__subj" x="282.07104" y="-24.40625" style="fill:black;font-size:7px;font-family:Arial;text-anchor:middle;text-align:center" >subj</text>
<path style="marker-end:url(#markerendword_3);" stroke="black" fill="none" d="M 390.09131,-13.40625 390.09131,-18.40625 A 3 3 0 0 0 387.09131,-21.40625 L 177.57104,-21.40625 A 3 3 0 0 0 174.57104,-18.40625 L 174.57104,-13.40625" ></path>
<marker id="markerendword_2" markerWidth="5" markerHeight="5" markerUnits="userSpaceOnUse" orient="auto" refX="2" refY="2">
<path d="M0,0 l4,2 l-4,2 z" style="fill:black;"/>
</marker>
<text id="label__N_4__N_1__punct" x="244.48071" y="-34.40625" style="fill:black;font-size:7px;font-family:Arial;text-anchor:middle;text-align:center" >punct</text>
<path style="marker-end:url(#markerendword_2);" stroke="black" fill="none" d="M 395.09131,-13.40625 395.09131,-28.40625 A 3 3 0 0 0 392.09131,-31.40625 L 96.98071,-31.40625 A 3 3 0 0 0 93.98071,-28.40625 L 93.98071,-13.40625" ></path>
<marker id="markerendword_7" markerWidth="5" markerHeight="5" markerUnits="userSpaceOnUse" orient="auto" refX="2" refY="2">
<path d="M0,0 l4,2 l-4,2 z" style="fill:black;"/>
</marker>
<text id="label__N_4__N_7__punct" x="576.09131" y="-24.40625" style="fill:black;font-size:7px;font-family:Arial;text-anchor:middle;text-align:center" >punct</text>
<path style="marker-end:url(#markerendword_7);" stroke="black" fill="none" d="M 405.09131,-13.40625 405.09131,-18.40625 A 3 3 0 0 1 408.09131,-21.40625 L 744.48804,-21.40625 A 3 3 0 0 1 747.48804,-18.40625 L 747.48804,-13.40625" ></path>
<marker id="markerendword_0" markerWidth="5" markerHeight="5" markerUnits="userSpaceOnUse" orient="auto" refX="2" refY="2">
<path d="M0,0 l4,2 l-4,2 z" style="fill:black;"/>
</marker>
<text id="label__N_0__N_4__root" x="213.34277" y="-44.40625" style="fill:black;font-size:7px;font-family:Arial;text-anchor:middle;text-align:center" >root</text>
<path style="marker-end:url(#markerendword_0);" stroke="black" fill="none" d="M 26.84277,-13.40625 26.84277,-38.40625 A 3 3 0 0 1 29.84277,-41.40625 L 397.09131,-41.40625 A 3 3 0 0 1 400.09131,-38.40625 L 400.09131,-13.40625" ></path>

<marker id="markerendgroup_1" markerWidth="5" markerHeight="5" markerUnits="userSpaceOnUse" orient="auto" refX="2" refY="2">
<path d="M0,0 l4,2 l-4,2 z" style="fill:blue;"/>
</marker>
<text id="label__N_2__N_3__Syl=1" x="227.57104" y="184.53223" style="fill:blue;font-size:7px;font-family:Arial;text-anchor:middle;text-align:center" >Syl=1</text>
<path style="marker-end:url(#markerendgroup_1);" stroke="blue" fill="none" d="M 174.57104,68.15234 174.57104,174.19531 A 3 3 0 0 0 177.57104,177.19531 L 278.48853,177.19531 A 3 3 0 0 0 281.48853,174.19531 L 281.48853,168.19531" ></path>
<marker id="markerendgroup_4" markerWidth="5" markerHeight="5" markerUnits="userSpaceOnUse" orient="auto" refX="2" refY="2">
<path d="M0,0 l4,2 l-4,2 z" style="fill:blue;"/>
</marker>
<text id="label__N_4__N_3__Syl=1" x="339.48853" y="184.53223" style="fill:blue;font-size:7px;font-family:Arial;text-anchor:middle;text-align:center" >Syl=1</text>
<path style="marker-end:url(#markerendgroup_4);" stroke="blue" fill="none" d="M 392.59131,51.47852 392.59131,174.19531 A 3 3 0 0 1 389.59131,177.19531 L 289.48853,177.19531 A 3 3 0 0 1 286.48853,174.19531 L 286.48853,168.19531" ></path>
<marker id="markerendgroup_5" markerWidth="5" markerHeight="5" markerUnits="userSpaceOnUse" orient="auto" refX="2" refY="2">
<path d="M0,0 l4,2 l-4,2 z" style="fill:blue;"/>
</marker>
<text id="label__N_4__N_5__Syl=2" x="457.09131" y="184.53223" style="fill:blue;font-size:7px;font-family:Arial;text-anchor:middle;text-align:center" >Syl=2</text>
<path style="marker-end:url(#markerendgroup_5);" stroke="blue" fill="none" d="M 402.59131,51.47852 402.59131,174.19531 A 3 3 0 0 0 405.59131,177.19531 L 509.32886,177.19531 A 3 3 0 0 0 512.32886,174.19531 L 512.32886,168.19531" ></path>
<marker id="markerendgroup_6" markerWidth="5" markerHeight="5" markerUnits="userSpaceOnUse" orient="auto" refX="2" refY="2">
<path d="M0,0 l4,2 l-4,2 z" style="fill:blue;"/>
</marker>
<text id="label__N_4__N_6__Syl=3" x="521.09131" y="194.53223" style="fill:blue;font-size:7px;font-family:Arial;text-anchor:middle;text-align:center" >Syl=3</text>
<path style="marker-end:url(#markerendgroup_6);" stroke="blue" fill="none" d="M 397.59131,51.47852 397.59131,184.19531 A 3 3 0 0 0 400.59131,187.19531 L 641.88257,187.19531 A 3 3 0 0 0 644.88257,184.19531 L 644.88257,168.19531" ></path>

</g>
</svg>
