<?xml version="1.0" standalone="no"?>
<!DOCTYPE svg PUBLIC "-//W3C//DTD SVG 1.1//EN"
"http://www.w3.org/Graphics/SVG/1.1/DTD/svg11.dtd">
<!-- Created with dep2pict -->
<svg xmlns:svg="http://www.w3.org/2000/svg" xmlns="http://www.w3.org/2000/svg" xmlns:xlink="http://www.w3.org/1999/xlink" width="1116.79785" height="350.66016">
<rect x="0" y="0" width="1116.79785" height="350.66016" style="fill:white;fill-opacity:0;" />
<g  transform="translate(0,119.36719) scale(2,2)">
<text id="word__N_0" x="26.8428" y="-14.4062" font-style="normal" font-weight="normal" fill="black" font-size="12" font-family="Arial" text-anchor="middle" text-align="center">
<tspan   x="26.8428" dy="12.8633">__0__</tspan>
</text>
<text id="word__N_1" x="93.9807" y="-14.4062" font-style="normal" font-weight="normal" fill="black" font-size="12" font-family="Arial" text-anchor="middle" text-align="center">
<tspan   x="93.9807" dy="12.8633">#</tspan>
</text>
<text id="subword__N_1" x="93.9807" y="-1.54297" fill="black" font-size="7" font-family="Arial" text-anchor="middle" text-align="center">
<tspan   x="93.9807" dy="8.33691">upos=PUNCT</tspan>
<tspan   x="93.9807" dy="8.33691">lemma=#</tspan>
<tspan   x="93.9807" dy="8.33691">AlignBegin=200000</tspan>
<tspan   x="93.9807" dy="8.33691">AlignEnd=200330</tspan>
<tspan   x="93.9807" dy="8.33691">Gloss=PUNCT</tspan>
</text>
<text id="word__N_2" x="174.571" y="-14.4062" font-style="normal" font-weight="normal" fill="black" font-size="12" font-family="Arial" text-anchor="middle" text-align="center">
<tspan   x="174.571" dy="12.8633">you</tspan>
</text>
<text id="subword__N_2" x="174.571" y="-1.54297" fill="black" font-size="7" font-family="Arial" text-anchor="middle" text-align="center">
<tspan   x="174.571" dy="8.33691">upos=PRON</tspan>
<tspan   x="174.571" dy="8.33691">lemma=you</tspan>
<tspan   x="174.571" dy="8.33691">AlignBegin=200330</tspan>
<tspan   x="174.571" dy="8.33691">AlignEnd=200400</tspan>
<tspan   x="174.571" dy="8.33691">Case=Nom</tspan>
<tspan   x="174.571" dy="8.33691">Gloss=NOM.2</tspan>
<tspan   x="174.571" dy="8.33691">Person=2</tspan>
<tspan   x="174.571" dy="8.33691">PronType=Prs</tspan>
</text>
<text id="word__N_3" x="255.161" y="-14.4062" font-style="normal" font-weight="normal" fill="#cc00cb" font-size="12" font-family="Arial" text-anchor="middle" text-align="center">
<tspan   x="255.161" dy="12.8633">jO</tspan>
</text>
<text id="subword__N_3" x="255.161" y="-1.54297" fill="#cc00cb" font-size="7" font-family="Arial" text-anchor="middle" text-align="center">
<tspan   x="255.161" dy="8.33691">AlignBegin=200330</tspan>
<tspan   x="255.161" dy="8.33691">AlignEnd=200467</tspan>
<tspan   x="255.161" dy="8.33691">AvgHeightGlo=M</tspan>
<tspan   x="255.161" dy="8.33691">AvgHeightLoc=M</tspan>
<tspan   x="255.161" dy="8.33691">Glo=mm</tspan>
<tspan   x="255.161" dy="8.33691">Loc=mm</tspan>
<tspan   x="255.161" dy="8.33691">PitchRangeGlo=L</tspan>
<tspan   x="255.161" dy="8.33691">PitchRangeLoc=L</tspan>
<tspan   x="255.161" dy="8.33691">SlopeGlo=Flat</tspan>
<tspan   x="255.161" dy="8.33691">SlopeLoc=Flat</tspan>
</text>
<text id="word__N_4" x="345.804" y="-14.4062" font-style="normal" font-weight="normal" fill="black" font-size="12" font-family="Arial" text-anchor="middle" text-align="center">
<tspan   x="345.804" dy="12.8633">understand</tspan>
</text>
<text id="subword__N_4" x="345.804" y="-1.54297" fill="black" font-size="7" font-family="Arial" text-anchor="middle" text-align="center">
<tspan   x="345.804" dy="8.33691">upos=VERB</tspan>
<tspan   x="345.804" dy="8.33691">lemma=understand</tspan>
<tspan   x="345.804" dy="8.33691">AlignBegin=200400</tspan>
<tspan   x="345.804" dy="8.33691">AlignEnd=200841</tspan>
<tspan   x="345.804" dy="8.33691">Gloss=understand</tspan>
<tspan   x="345.804" dy="8.33691">UtteranceMeanF0=96.185</tspan>
</text>
<text id="word__N_5" x="436.455" y="-14.4062" font-style="normal" font-weight="normal" fill="#cc00cb" font-size="12" font-family="Arial" text-anchor="middle" text-align="center">
<tspan   x="436.455" dy="12.8633">sta~</tspan>
</text>
<text id="subword__N_5" x="436.455" y="-1.54297" fill="#cc00cb" font-size="7" font-family="Arial" text-anchor="middle" text-align="center">
<tspan   x="436.455" dy="8.33691">AlignBegin=200467</tspan>
<tspan   x="436.455" dy="8.33691">AlignEnd=200841</tspan>
<tspan   x="436.455" dy="8.33691">AvgHeightGlo=H</tspan>
<tspan   x="436.455" dy="8.33691">AvgHeightLoc=H</tspan>
<tspan   x="436.455" dy="8.33691">Glo=hh</tspan>
<tspan   x="436.455" dy="8.33691">Loc=hh</tspan>
<tspan   x="436.455" dy="8.33691">PitchRangeGlo=L</tspan>
<tspan   x="436.455" dy="8.33691">PitchRangeLoc=L</tspan>
<tspan   x="436.455" dy="8.33691">SlopeGlo=Flat</tspan>
<tspan   x="436.455" dy="8.33691">SlopeLoc=Flat</tspan>
</text>
<text id="word__N_6" x="516.579" y="-14.4062" font-style="normal" font-weight="normal" fill="black" font-size="12" font-family="Arial" text-anchor="middle" text-align="center">
<tspan   x="516.579" dy="12.8633">?//</tspan>
</text>
<text id="subword__N_6" x="516.579" y="-1.54297" fill="black" font-size="7" font-family="Arial" text-anchor="middle" text-align="center">
<tspan   x="516.579" dy="8.33691">upos=PUNCT</tspan>
<tspan   x="516.579" dy="8.33691">lemma=?//</tspan>
<tspan   x="516.579" dy="8.33691">AlignBegin=200841</tspan>
<tspan   x="516.579" dy="8.33691">AlignEnd=200841</tspan>
<tspan   x="516.579" dy="8.33691">Gloss=PUNCT</tspan>
</text>

<marker id="markerendword_3" markerWidth="5" markerHeight="5" markerUnits="userSpaceOnUse" orient="auto" refX="2" refY="2">
<path d="M0,0 l4,2 l-4,2 z" style="fill:black;"/>
</marker>
<text id="label__N_4__N_2__subj" x="256.07104" y="-24.40625" style="fill:black;font-size:7px;font-family:Arial;text-anchor:middle;text-align:center" >subj</text>
<path style="marker-end:url(#markerendword_3);" stroke="black" fill="none" d="M 338.30396,-13.40625 338.30396,-18.40625 A 3 3 0 0 0 335.30396,-21.40625 L 177.57104,-21.40625 A 3 3 0 0 0 174.57104,-18.40625 L 174.57104,-13.40625" ></path>
<marker id="markerendword_6" markerWidth="5" markerHeight="5" markerUnits="userSpaceOnUse" orient="auto" refX="2" refY="2">
<path d="M0,0 l4,2 l-4,2 z" style="fill:black;"/>
</marker>
<text id="label__N_4__N_6__punct" x="434.80396" y="-24.40625" style="fill:black;font-size:7px;font-family:Arial;text-anchor:middle;text-align:center" >punct</text>
<path style="marker-end:url(#markerendword_6);" stroke="black" fill="none" d="M 353.30396,-13.40625 353.30396,-18.40625 A 3 3 0 0 1 356.30396,-21.40625 L 513.57886,-21.40625 A 3 3 0 0 1 516.57886,-18.40625 L 516.57886,-13.40625" ></path>
<marker id="markerendword_2" markerWidth="5" markerHeight="5" markerUnits="userSpaceOnUse" orient="auto" refX="2" refY="2">
<path d="M0,0 l4,2 l-4,2 z" style="fill:black;"/>
</marker>
<text id="label__N_4__N_1__punct" x="218.48071" y="-34.40625" style="fill:black;font-size:7px;font-family:Arial;text-anchor:middle;text-align:center" >punct</text>
<path style="marker-end:url(#markerendword_2);" stroke="black" fill="none" d="M 343.30396,-13.40625 343.30396,-28.40625 A 3 3 0 0 0 340.30396,-31.40625 L 96.98071,-31.40625 A 3 3 0 0 0 93.98071,-28.40625 L 93.98071,-13.40625" ></path>
<marker id="markerendword_0" markerWidth="5" markerHeight="5" markerUnits="userSpaceOnUse" orient="auto" refX="2" refY="2">
<path d="M0,0 l4,2 l-4,2 z" style="fill:black;"/>
</marker>
<text id="label__N_0__N_4__root" x="187.34277" y="-44.40625" style="fill:black;font-size:7px;font-family:Arial;text-anchor:middle;text-align:center" >root</text>
<path style="marker-end:url(#markerendword_0);" stroke="black" fill="none" d="M 26.84277,-13.40625 26.84277,-38.40625 A 3 3 0 0 1 29.84277,-41.40625 L 345.30396,-41.40625 A 3 3 0 0 1 348.30396,-38.40625 L 348.30396,-13.40625" ></path>

<marker id="markerendgroup_1" markerWidth="5" markerHeight="5" markerUnits="userSpaceOnUse" orient="auto" refX="2" refY="2">
<path d="M0,0 l4,2 l-4,2 z" style="fill:blue;"/>
</marker>
<text id="label__N_2__N_3__Syl=1" x="213.57104" y="101.16309" style="fill:blue;font-size:7px;font-family:Arial;text-anchor:middle;text-align:center" >Syl=1</text>
<path style="marker-end:url(#markerendgroup_1);" stroke="blue" fill="none" d="M 174.57104,68.15234 174.57104,90.82617 A 3 3 0 0 0 177.57104,93.82617 L 249.66138,93.82617 A 3 3 0 0 0 252.66138,90.82617 L 252.66138,84.82617" ></path>
<marker id="markerendgroup_4" markerWidth="5" markerHeight="5" markerUnits="userSpaceOnUse" orient="auto" refX="2" refY="2">
<path d="M0,0 l4,2 l-4,2 z" style="fill:blue;"/>
</marker>
<text id="label__N_4__N_3__Syl=1" x="300.16138" y="101.16309" style="fill:blue;font-size:7px;font-family:Arial;text-anchor:middle;text-align:center" >Syl=1</text>
<path style="marker-end:url(#markerendgroup_4);" stroke="blue" fill="none" d="M 343.30396,51.47852 343.30396,90.82617 A 3 3 0 0 1 340.30396,93.82617 L 260.66138,93.82617 A 3 3 0 0 1 257.66138,90.82617 L 257.66138,84.82617" ></path>
<marker id="markerendgroup_5" markerWidth="5" markerHeight="5" markerUnits="userSpaceOnUse" orient="auto" refX="2" refY="2">
<path d="M0,0 l4,2 l-4,2 z" style="fill:blue;"/>
</marker>
<text id="label__N_4__N_5__Syl=2" x="392.30396" y="101.16309" style="fill:blue;font-size:7px;font-family:Arial;text-anchor:middle;text-align:center" >Syl=2</text>
<path style="marker-end:url(#markerendgroup_5);" stroke="blue" fill="none" d="M 348.30396,51.47852 348.30396,90.82617 A 3 3 0 0 0 351.30396,93.82617 L 433.45508,93.82617 A 3 3 0 0 0 436.45508,90.82617 L 436.45508,84.82617" ></path>

</g>
</svg>
